<svg data-name="Layer 1" xmlns="http://www.w3.org/2000/svg" viewBox="0 0 33.417 84.417"><title>1</title><path d="M21.649 80.613A12.57 12.57 0 0 1 .176 71.76V16.8a16.522 16.522 0 0 1 28.2-11.775 16.535 16.535 0 0 1 4.946 11.718v43.262a2.35 2.35 0 1 1-4.7.008V16.754a11.934 11.934 0 0 0-20.37-8.367A11.722 11.722 0 0 0 4.877 16.8v54.952a7.881 7.881 0 0 0 7.882 7.856 8.062 8.062 0 0 0 7.856-7.882v-36.9a3.9 3.9 0 0 0-1.181-2.692 3.809 3.809 0 0 0-6.5 2.7l.043 25.2a2.35 2.35 0 0 1-4.7.008l-.043-25.2A8.51 8.51 0 0 1 22.751 28.8a8.629 8.629 0 0 1 2.565 6.013v36.9a12.49 12.49 0 0 1-3.667 8.894zm0 0" fill="#fff"/></svg>