<svg data-name="Layer 1" xmlns="http://www.w3.org/2000/svg" viewBox="0 0 33.083 32.5"><title>1</title><path d="M16.582.241A16.5 16.5 0 0 0 11.368 32.4a.829.829 0 0 0 1.126-.8c0-.392-.014-1.429-.022-2.806-4.59 1-5.558-2.212-5.558-2.212a4.369 4.369 0 0 0-1.832-2.412c-1.5-1.024.113-1 .113-1a3.466 3.466 0 0 1 2.527 1.7 3.513 3.513 0 0 0 4.8 1.371 3.525 3.525 0 0 1 1.048-2.206c-3.664-.416-7.516-1.832-7.516-8.155a6.378 6.378 0 0 1 1.7-4.428 5.935 5.935 0 0 1 .162-4.367s1.384-.445 4.538 1.69a15.639 15.639 0 0 1 8.262 0c3.15-2.135 4.533-1.691 4.533-1.691a5.926 5.926 0 0 1 .164 4.367 6.367 6.367 0 0 1 1.7 4.428c0 6.339-3.858 7.733-7.534 8.142a3.938 3.938 0 0 1 1.12 3.056c0 2.206-.02 3.985-.02 4.526a.826.826 0 0 0 1.135.793A16.5 16.5 0 0 0 16.582.241z" fill="#fff" fill-rule="evenodd"/></svg>