<svg data-name="Layer 1" xmlns="http://www.w3.org/2000/svg" viewBox="0 0 47.917 30.667"><title>1</title><path data-name="&amp;lt;Path&amp;gt;" d="M43.583 12.649h-1v-.887c0-1.266.018-2.531-.012-3.8a.763.763 0 0 0-.346-.583c-1.156-.045-2.314-.028-3.537-.028v5.285h-5.3c0 .4-.01.666 0 .93.039.958.084 1.916.128 2.872.935.033 1.87.076 2.806.1.781.014 1.563 0 2.429 0v5.215h3.824v-5.229H47.8v-3.875h-4.22zm-15.013-.444c-3.3.043-6.606.019-9.909.019-.943 0-1.889-.017-2.831.02a.65.65 0 0 0-.5.345c-.034 1.9-.024 3.807-.024 5.813H23.4c-.108.393-.174.677-.267.952-1.242 3.679-5.042 5.5-9.115 4.834A8.918 8.918 0 0 1 6.707 13.6a8.6 8.6 0 0 1 .642-2.036 8.909 8.909 0 0 1 9.9-5.016 8.507 8.507 0 0 1 3.8 1.973c1.471-1.483 2.9-2.924 4.423-4.462-.1-.077-.24-.178-.371-.287A14.545 14.545 0 0 0 12.839.4 15.124 15.124 0 0 0 .421 12.758a14.934 14.934 0 0 0 .8 8.017A15.239 15.239 0 0 0 17.154 30.4a13.614 13.614 0 0 0 8.771-4.115c3.484-3.709 4.378-8.2 3.824-13.113a.928.928 0 0 0-1.179-.967z" fill="#2478de"/></svg>