<svg data-name="Layer 1" xmlns="http://www.w3.org/2000/svg" viewBox="0 0 33 32.917"><title>1</title><path d="M11.12 16.5a5.463 5.463 0 1 1 5.463 5.463A5.463 5.463 0 0 1 11.12 16.5m-2.953 0a8.416 8.416 0 1 0 8.416-8.417A8.416 8.416 0 0 0 8.167 16.5m15.2-8.75a1.967 1.967 0 1 0 1.967-1.967 1.967 1.967 0 0 0-1.967 1.967m-13.4 22.09a9.053 9.053 0 0 1-3.043-.564 5.081 5.081 0 0 1-1.885-1.226 5.076 5.076 0 0 1-1.226-1.884 9.072 9.072 0 0 1-.564-3.043c-.079-1.728-.1-2.247-.1-6.623s.017-4.894.1-6.623a9.073 9.073 0 0 1 .564-3.043 5.077 5.077 0 0 1 1.22-1.884 5.073 5.073 0 0 1 1.884-1.226 9.068 9.068 0 0 1 3.043-.565c1.728-.079 2.247-.1 6.622-.1s4.894.016 6.623.1a9.073 9.073 0 0 1 3.043.564 5.075 5.075 0 0 1 1.885 1.226 5.076 5.076 0 0 1 1.227 1.884 9.071 9.071 0 0 1 .565 3.043c.079 1.728.1 2.247.1 6.623s-.025 4.895-.1 6.623a9.07 9.07 0 0 1-.564 3.043 5.429 5.429 0 0 1-3.11 3.111 9.058 9.058 0 0 1-3.043.564c-1.728.079-2.247.1-6.623.1s-4.894-.016-6.622-.1M9.825.21a12.013 12.013 0 0 0-3.978.762 8.029 8.029 0 0 0-2.9 1.89 8.022 8.022 0 0 0-1.89 2.9 12.007 12.007 0 0 0-.764 3.981c-.08 1.748-.1 2.306-.1 6.757s.019 5.009.1 6.757a12 12 0 0 0 .762 3.978 8.018 8.018 0 0 0 1.89 2.9 8.033 8.033 0 0 0 2.9 1.89 12.02 12.02 0 0 0 3.978.761c1.748.08 2.306.1 6.757.1s5.01-.019 6.758-.1a12.024 12.024 0 0 0 3.979-.762 8.381 8.381 0 0 0 4.793-4.794 12.019 12.019 0 0 0 .762-3.978c.08-1.748.1-2.306.1-6.757s-.019-5.009-.1-6.757a12.027 12.027 0 0 0-.762-3.978 8.039 8.039 0 0 0-1.89-2.9 8.035 8.035 0 0 0-2.9-1.89 12.018 12.018 0 0 0-3.98-.761c-1.748-.08-2.306-.1-6.758-.1S11.574.13 9.825.21" fill="#2478de"/></svg>