<svg data-name="Layer 1" xmlns="http://www.w3.org/2000/svg" viewBox="0 0 402.04 399.037"><title>Untitled-2</title><path d="M220.8 258.355a6 6 0 1 0 0-12H30.891a.914.914 0 0 1-.891-.89V26.09a.917.917 0 0 1 .891-.891h289.418a.916.916 0 0 1 .89.891v105.6a6 6 0 0 0 12 0V26.09a12.9 12.9 0 0 0-12.89-12.89H30.891A12.9 12.9 0 0 0 18 26.09v219.375a12.906 12.906 0 0 0 12.891 12.89h108.152v36.235H92.91a6 6 0 1 0 0 12H220.8a6 6 0 0 0 0-12h-8.645v-36.235h8.645zm-20.644 36.235h-49.113v-36.235h49.113v36.235zm0 0" fill="#2377de"/><path d="M220.8 205.691H48a6 6 0 0 0 0 12h172.8a6 6 0 0 0 0-12zm160.309-56H251.691a12.9 12.9 0 0 0-12.89 12.891v213.727a12.9 12.9 0 0 0 12.89 12.89h129.418A12.9 12.9 0 0 0 394 376.309V162.582a12.9 12.9 0 0 0-12.891-12.891zm-130.308 36H382V329.2H250.8V185.691zm.89-24h129.418a.914.914 0 0 1 .891.891v11.109H250.8v-11.109a.914.914 0 0 1 .89-.891zM381.109 377.2H251.691a.913.913 0 0 1-.89-.89V341.2H382v35.11a.916.916 0 0 1-.891.89zm0 0" fill="#2377de"/><path d="M328.4 353.2h-24a6 6 0 0 0 0 12h24a6 6 0 1 0 0-12zm0 0" fill="#2377de"/></svg>