<svg data-name="Layer 1" xmlns="http://www.w3.org/2000/svg" viewBox="0 0 402.04 366.037"><title>Untitled-2</title><path d="M147.375 160.821a6 6 0 0 0-8.227-2.082l-69.9 41.629a6 6 0 0 0 0 10.312l69.9 41.629A6 6 0 0 0 145.289 242l-61.243-36.476 61.243-36.477a6 6 0 0 0 2.086-8.226zm108.3 89.406a5.991 5.991 0 0 0 8.223 2.082l69.9-41.629a6 6 0 0 0 0-10.312l-69.9-41.629a6 6 0 0 0-6.141 10.308L319 205.524 257.757 242a6 6 0 0 0-2.082 8.226zm-31.175-89.68l-55.915 83.262a6 6 0 1 0 9.961 6.692l55.915-83.262a6 6 0 0 0-9.961-6.692zm0 0" fill="#2377de"/><path d="M383.523 11.524h-364a6 6 0 0 0-6 6v328a6 6 0 0 0 6 6h364a6 6 0 0 0 6-6v-64a6 6 0 0 0-12 0v58h-352v-268h352v186a6 6 0 1 0 12 0v-240a6 6 0 0 0-6-6zm-358 12h222v36h-222v-36zm234 36v-36h118v36h-118zm0 0" fill="#2377de"/><path d="M318.722 35.126a6.4 6.4 0 1 0 6.4 6.4 6.406 6.406 0 0 0-6.4-6.4zm-32.801 0a6.4 6.4 0 1 0 6.4 6.4 6.406 6.406 0 0 0-6.4-6.4zm65.602 0a6.4 6.4 0 1 0 6.4 6.4 6.406 6.406 0 0 0-6.4-6.4zm0 0" fill="#2377de"/></svg>