<svg data-name="Layer 1" xmlns="http://www.w3.org/2000/svg" viewBox="0 0 402.04 366.037"><title>Untitled-2</title><path d="M138.978 218.33H265.1a6 6 0 0 0 6-6V81.783a6 6 0 0 0-6-6h-29.06v-2.547a34 34 0 1 0-68 0v2.547h-29.062a6 6 0 0 0-6 6V212.33a6 6 0 0 0 6 6zM180.04 73.236a22 22 0 1 1 44 0v2.547h-44v-2.547zm-35.062 14.547h23.062v10a6 6 0 1 0 12 0v-10h44v10a6 6 0 1 0 12 0v-10h23.06V206.33H144.978V87.783zm0 0" fill="#2377de"/><path d="M375.767 7.236H28.313A14.288 14.288 0 0 0 14.04 21.509v263.364a14.288 14.288 0 0 0 14.273 14.273H159.36v45.91h-56.593a6 6 0 1 0 0 12h198.546a6 6 0 0 0 0-12h-56.589v-45.91H375.77a14.287 14.287 0 0 0 14.27-14.273V21.509a14.288 14.288 0 0 0-14.273-14.273zm-143.043 337.82H171.36v-45.91h61.364v45.91zm145.316-60.183a2.3 2.3 0 0 1-2.273 2.273H28.313a2.3 2.3 0 0 1-2.273-2.273V21.509a2.3 2.3 0 0 1 2.273-2.273h347.454a2.3 2.3 0 0 1 2.273 2.273v263.364zm0 0" fill="#2377de"/><path d="M359.224 238.33H44.856a6 6 0 0 0 0 12H359.22a6 6 0 0 0 0-12zm0 0" fill="#2377de"/></svg>