<svg data-name="Layer 1" xmlns="http://www.w3.org/2000/svg" viewBox="0 0 402.04 366.037"><title>Untitled-2</title><path d="M383.96 12.289h-364a6 6 0 0 0-6 6v328a6 6 0 0 0 6 6h364a6 6 0 0 0 6-6v-64a6 6 0 0 0-12 0v58h-352v-268h352v186a6 6 0 1 0 12 0v-240a6 6 0 0 0-6-6zm-358 12h222v36h-222v-36zm234 36v-36h118v36h-118zm0 0" fill="#2377de"/><path d="M319.159 35.891a6.4 6.4 0 1 0 6.4 6.4 6.406 6.406 0 0 0-6.4-6.4zm-32.801 0a6.4 6.4 0 1 0 6.4 6.4 6.406 6.406 0 0 0-6.4-6.4zm65.602 0a6.4 6.4 0 1 0 6.4 6.4 6.406 6.406 0 0 0-6.4-6.4zM132.933 175.082a6 6 0 0 0 5-4.234l13.8-46.075a6 6 0 0 0-11.5-3.445l-9.9 33.047-9.533-15.926a6 6 0 0 0-10.293 0l-9.543 15.926-9.9-33.039a6 6 0 1 0-11.5 3.445l13.8 46.067a6 6 0 0 0 10.9 1.363l11.387-19.011 11.387 19.008a6 6 0 0 0 5.9 2.871zm46.113-.008a6.076 6.076 0 0 0 .746.047 6 6 0 0 0 5.145-2.918l11.386-19 11.387 19a6 6 0 0 0 10.9-1.359l13.8-46.078a6 6 0 1 0-11.492-3.442l-9.9 33.043-9.543-15.926a6.005 6.005 0 0 0-10.3 0l-9.539 15.926-9.9-33.039a6 6 0 0 0-11.5 3.445l13.8 46.071a6 6 0 0 0 5 4.23zm130.008-57.781a6 6 0 0 0-7.473 4.027l-9.9 33.043-9.543-15.926a6 6 0 0 0-10.293 0l-9.545 15.926-9.9-33.039a6 6 0 1 0-11.492 3.445l13.8 46.067A6 6 0 0 0 265.6 172.2l11.386-19 11.387 19a6 6 0 0 0 10.894-1.363l13.8-46.074a6 6 0 0 0-4.023-7.469zm-185.735 91.832a6 6 0 0 0-6-6h-32a6 6 0 0 0-6 6v32a6 6 0 0 0 6 6h32a6 6 0 0 0 6-6v-32zm-12 26h-20v-20h20v20zm6 24h-32a6 6 0 0 0-6 6v32a6 6 0 0 0 6 6h32a6 6 0 0 0 6-6v-32a6 6 0 0 0-6-6zm-6 32h-20v-20h20v20zm196.012-72h-24a6 6 0 0 0 0 12h24a6 6 0 0 0 0-12zm-48 0H141.319a6 6 0 1 0 0 12h118.012a6 6 0 0 0 0-12zm48 56h-24a6 6 0 0 0 0 12h24a6 6 0 0 0 0-12zm-48 0H141.319a6 6 0 1 0 0 12h118.012a6 6 0 0 0 0-12zm0 0" fill="#2377de"/></svg>