<svg data-name="Layer 1" xmlns="http://www.w3.org/2000/svg" viewBox="0 0 402.04 366.037"><title>Untitled-2</title><path d="M383.04 12.362h-364a6 6 0 0 0-6 6v328a6 6 0 0 0 6 6h364a6 6 0 0 0 6-6v-64a6 6 0 1 0-12 0v58h-352v-268h352v186a6 6 0 0 0 12 0v-240a6 6 0 0 0-6-6zm-358 12h222v36h-222v-36zm234 36v-36h118v36h-118zm0 0" fill="#2377de"/><path d="M318.239 35.964a6.4 6.4 0 1 0 6.4 6.4 6.406 6.406 0 0 0-6.4-6.4zm-32.801 0a6.4 6.4 0 1 0 6.4 6.4 6.406 6.406 0 0 0-6.4-6.4zm65.602 0a6.4 6.4 0 1 0 6.4 6.4 6.406 6.406 0 0 0-6.4-6.4zm-86.465 223.203a6 6 0 0 0-6 6v43.593a6 6 0 0 0 6 6h80.863a6 6 0 0 0 6-6v-43.593a6 6 0 0 0-6-6h-36.355v-35.715a6 6 0 0 0-6-6H225.04a6 6 0 0 0 0 12h72.043v29.715h-32.508zm74.863 43.593h-68.863v-31.593h68.863v31.593zm-79.859-171.914a6 6 0 0 0-6-6H148.5a6 6 0 0 0 0 12h105.079a6 6 0 0 0 6-6zm-22.207 24a6 6 0 0 0-6-6h-60.664a6 6 0 0 0 0 12h60.664a6 6 0 0 0 6-6zm0 0" fill="#2377de"/><path d="M160.606 259.167a6 6 0 0 0-6 6v43.593a6 6 0 0 0 6 6h80.868a6 6 0 0 0 6-6v-43.593a6 6 0 0 0-6-6H207.04v-71.438h72.938a6 6 0 0 0 6-6v-77.765a6 6 0 0 0-6-6H122.1a6 6 0 0 0-6 6v77.765a6 6 0 0 0 6 6h72.94v29.719H99a6 6 0 0 0-6 6v35.719H56.642a6 6 0 0 0-6 6v43.593a6 6 0 0 0 6 6h80.863a6 6 0 0 0 6-6v-43.593a6 6 0 0 0-6-6H105v-29.715h90.04v29.715h-34.434zm-32.5-149.2h145.872v65.765H128.1v-65.768zm3.4 192.8H62.642v-31.6h68.863v31.593zm103.969 0h-68.869v-31.6h68.868v31.593zm0 0" fill="#2377de"/></svg>