<svg data-name="Layer 1" xmlns="http://www.w3.org/2000/svg" viewBox="0 0 32.25 25.917"><title>1</title><path data-name="&amp;lt;Path&amp;gt;" d="M32.167 3.231A13.241 13.241 0 0 1 28.4 4.248 6.5 6.5 0 0 0 31.285.672a13.253 13.253 0 0 1-4.171 1.57A6.6 6.6 0 0 0 22.324.2a6.47 6.47 0 0 0-6.4 7.935A18.737 18.737 0 0 1 2.4 1.383a6.361 6.361 0 0 0-.89 3.249 6.441 6.441 0 0 0 2.921 5.378 6.629 6.629 0 0 1-2.977-.81v.08a6.342 6.342 0 0 0 .446 2.345 6.554 6.554 0 0 0 4.818 4 6.763 6.763 0 0 1-1.732.227 6.515 6.515 0 0 1-1.235-.118 6.56 6.56 0 0 0 6.133 4.488 13.3 13.3 0 0 1-8.154 2.767A13.656 13.656 0 0 1 .167 22.9a18.812 18.812 0 0 0 10.064 2.9 18.276 18.276 0 0 0 18.234-14.487 17.775 17.775 0 0 0 .446-3.9c0-.279-.005-.559-.017-.836a13.192 13.192 0 0 0 3.273-3.346z" fill="#fff"/></svg>