<svg data-name="Layer 1" xmlns="http://www.w3.org/2000/svg" viewBox="0 0 39.083 28.566"><title>1</title><path d="M38.6 6.139s-.378-2.791-1.54-4.019A5.437 5.437 0 0 0 33.174.407C27.739 0 19.593 0 19.593 0h-.018S11.424 0 5.994.409A5.425 5.425 0 0 0 2.1 2.122C.943 3.35.563 6.141.563 6.141a63.574 63.574 0 0 0-.389 6.55v3.069a63.631 63.631 0 0 0 .389 6.553S.943 25.1 2.1 26.33c1.479 1.613 3.421 1.561 4.282 1.728 3.106.31 13.2.407 13.2.407s8.155-.015 13.591-.422a5.428 5.428 0 0 0 3.888-1.716c1.162-1.227 1.54-4.016 1.54-4.016a63.407 63.407 0 0 0 .39-6.552v-3.068a63.42 63.42 0 0 0-.391-6.552zm-12.539 7.68l-10.484 5.665V8.112l4.723 2.573z" fill="#2478de"/></svg>